HIERARCHY
ROOT RootJoint
{
    OFFSET   0.000000   0.000000   0.000000
    CHANNELS 6 Xposition Yposition Zposition Xrotation Yrotation Zrotation
    JOINT pelvis_lowerback
    {
        OFFSET   0.000000   0.093605   0.000000
        CHANNELS 3 Xrotation Yrotation Zrotation
        JOINT lowerback_torso
        {
            OFFSET   0.000000   0.100000   0.000000
            CHANNELS 3 Xrotation Yrotation Zrotation
            JOINT torso_head
            {
                OFFSET   0.000000   0.282350   0.000000
                CHANNELS 3 Xrotation Yrotation Zrotation
                End Site
                {
                    OFFSET   0.000000   0.192650   0.000000
                }
            }
            JOINT rTorso_Clavicle
            {
                OFFSET  -0.001000   0.157500   0.000000
                CHANNELS 3 Xrotation Yrotation Zrotation
                JOINT rShoulder
                {
                    OFFSET  -0.117647   0.000000   0.000000
                    CHANNELS 3 Xrotation Yrotation Zrotation
                    JOINT rElbow
                    {
                        OFFSET  -0.245000   0.000000   0.000000
                        CHANNELS 3 Xrotation Yrotation Zrotation
                        JOINT rWrist
                        {
                            OFFSET  -0.240000   0.000000   0.000000
                            CHANNELS 3 Xrotation Yrotation Zrotation
                            End Site
                            {
                                OFFSET  -0.116353  -0.002500   0.000000
                            }
                        }
                    }
                }
            }
            JOINT lTorso_Clavicle
            {
                OFFSET   0.001000   0.157500   0.000000
                CHANNELS 3 Xrotation Yrotation Zrotation
                JOINT lShoulder
                {
                    OFFSET   0.117647   0.000000   0.000000
                    CHANNELS 3 Xrotation Yrotation Zrotation
                    JOINT lElbow
                    {
                        OFFSET   0.245000   0.000000   0.000000
                        CHANNELS 3 Xrotation Yrotation Zrotation
                        JOINT lWrist
                        {
                            OFFSET   0.240000   0.000000   0.000000
                            CHANNELS 3 Xrotation Yrotation Zrotation
                            End Site
                            {
                                OFFSET   0.116353  -0.002500   0.000000
                            }
                        }
                    }
                }
            }
        }
    }
    JOINT rHip
    {
        OFFSET  -0.100000  -0.051395   0.000000
        CHANNELS 3 Xrotation Yrotation Zrotation
        JOINT rKnee
        {
            OFFSET   0.000000  -0.410000   0.000000
            CHANNELS 3 Xrotation Yrotation Zrotation
            JOINT rAnkle
            {
                OFFSET   0.000000  -0.390000   0.000000
                CHANNELS 3 Xrotation Yrotation Zrotation
                JOINT rToeJoint
                {
                    OFFSET   0.000000  -0.050000   0.130000
                    CHANNELS 3 Xrotation Yrotation Zrotation
                    End Site
                    {
                        OFFSET  -0.010000   0.002000   0.060000
                    }
                }
            }
        }
    }
    JOINT lHip
    {
        OFFSET   0.100000  -0.051395   0.000000
        CHANNELS 3 Xrotation Yrotation Zrotation
        JOINT lKnee
        {
            OFFSET   0.000000  -0.410000   0.000000
            CHANNELS 3 Xrotation Yrotation Zrotation
            JOINT lAnkle
            {
                OFFSET   0.000000  -0.390000   0.000000
                CHANNELS 3 Xrotation Yrotation Zrotation
                JOINT lToeJoint
                {
                    OFFSET   0.000000  -0.050000   0.130000
                    CHANNELS 3 Xrotation Yrotation Zrotation
                    End Site
                    {
                        OFFSET   0.010000   0.002000   0.060000
                    }
                }
            }
        }
    }
}
MOTION
Frames: 12
Frame Time:   0.008333
 -2.709638   0.933242   4.477435  -6.404544  -1.071382   0.909621   5.642039  -1.626250  -1.197154  -1.843090  -3.791331  -0.213881   2.627451  -2.678907   0.558386  -2.523451  -9.824611 -15.844256   4.790263  -9.959929  27.398881  -0.029922  57.229478   0.019401  -0.451339   0.938811  -5.244273  -5.055386   5.410412  19.984537 -29.850718   0.286525 -11.453589   0.073980 -82.528856   0.059175  -0.698787  -4.278244  12.902634   1.915250  -1.273723  -4.978040  25.746127  -0.005302  -0.019197 -11.288977  -0.985540   1.026442  -3.366381   0.000910  -0.016219   1.374025  -4.642484   2.929027  22.417931  -0.001729  -0.001114   1.839620   0.812203  -0.372847 -29.680839   0.000581   0.007111
 -2.710696   0.933513   4.474377  -6.370177  -2.050462   0.846786   5.786286  -1.423235  -1.254092  -1.881170  -3.655779  -0.361998   2.483243  -2.849342   0.630369  -2.608981  -9.421714 -15.711095   4.212483  -9.806316  26.846549  -0.031807  57.878996   0.020968  -0.466435   0.909838  -5.167504  -4.905282   5.316334  19.446492 -29.514254   0.401928 -11.693741   0.087793 -83.108766   0.069505  -0.758664  -4.219181  12.685373   2.272633  -1.329658  -5.060107  25.436262  -0.003254  -0.012810 -10.458397  -1.098977   1.046520  -3.279824   0.000671  -0.013832   0.865151  -4.233534   3.011755  23.114839  -0.003107  -0.003750   2.416664   0.851317  -0.607573 -30.807341  -0.001130   0.009612
 -2.711718   0.933448   4.471244  -6.355901  -3.108677   0.809381   5.943193  -1.176728  -1.326023  -1.912507  -3.484755  -0.525938   2.339920  -3.011255   0.703369  -2.699906  -8.985791 -15.572195   3.650106  -9.617157  26.337246  -0.032615  58.507924   0.021773  -0.475367   0.992456  -5.137663  -4.747375   5.212573  18.872219 -29.186225   0.509660 -11.966608   0.101333 -83.669860   0.080163  -0.801468  -4.260842  12.487540   2.619754  -1.360357  -5.186644  25.089617  -0.001511  -0.007219  -9.678195  -1.201982   1.066743  -3.152022   0.000423  -0.012378   0.352366  -3.875452   3.080520  23.879231  -0.004801  -0.006863   2.951897   0.834507  -0.842704 -32.115527  -0.003196   0.014124
 -2.712749   0.933161   4.468082  -6.356085  -4.185462   0.801232   6.102024  -0.924885  -1.421586  -1.932762  -3.299054  -0.703569   2.203819  -3.162714   0.772806  -2.787645  -8.542245 -15.423995   3.117335  -9.409569  25.873893  -0.032427  59.105853   0.021829  -0.478349   1.142847  -5.101721  -4.585027   5.106624  18.292971 -28.866761   0.611844 -12.248778   0.113575 -84.195601   0.090452  -0.838348  -4.326779  12.258778   2.952482  -1.388426  -5.341977  24.750701  -0.000150  -0.002766  -8.950250  -1.298556   1.086937  -3.032088   0.000210  -0.011139  -0.140507  -3.530199   3.129950  24.650080  -0.006340  -0.009528   3.382033   0.813105  -1.097871 -33.162687  -0.004666   0.016570
 -2.713814   0.932701   4.464902  -6.363666  -5.246237   0.812618   6.259266  -0.681029  -1.532689  -1.944175  -3.113170  -0.888655   2.075339  -3.304446   0.836957  -2.870155  -8.108752 -15.271347   2.618499  -9.197232  25.452247  -0.031489  59.669847   0.021296  -0.478142   1.327087  -5.050300  -4.423573   5.001702  17.725041 -28.559089   0.708295 -12.529727   0.124325 -84.685864   0.100135  -0.874491  -4.391218  12.004562   3.269081  -1.416018  -5.502559  24.429514   0.000874   0.000585  -8.270833  -1.388937   1.107286  -2.921092   0.000025  -0.010028  -0.610935  -3.200961   3.171325  25.399291  -0.007584  -0.011500   3.750816   0.790748  -1.351963 -34.109996  -0.005644   0.017968
 -2.714923   0.932109   4.461708  -6.375377  -6.272591   0.840727   6.414193  -0.451259  -1.655930  -1.948197  -2.934933  -1.077370   1.954652  -3.437015   0.895593  -2.947019  -7.695001 -15.117919   2.154229  -8.988464  25.067631  -0.030016  60.199275   0.020330  -0.476404   1.524449  -4.986184  -4.266546   4.899443  17.176817 -28.265391   0.798728 -12.803586   0.133675 -85.142775   0.109166  -0.910573  -4.449467  11.736664   3.570036  -1.443439  -5.658446  24.128245   0.001623   0.002991  -7.636619  -1.473304   1.127799  -2.818573  -0.000133  -0.009011  -1.060716  -2.887046   3.207596  26.118662  -0.008505  -0.012773   4.069138   0.769845  -1.601279 -34.962821  -0.006170   0.018444
 -2.716078   0.931416   4.458503  -6.389800  -7.256880   0.883958   6.566628  -0.237561  -1.788102  -1.945616  -2.767689  -1.267147   1.841772  -3.560921   0.948854  -3.018338  -7.305344 -14.966795   1.723369  -8.787732  24.715564  -0.028186  60.694784   0.019066  -0.474076   1.723075  -4.913585  -4.115955   4.800901  16.652738 -27.986692   0.883182 -13.067078   0.141811 -85.568641   0.117578  -0.946356  -4.501657  11.463803   3.855726  -1.470523  -5.804666  23.846997   0.002157   0.004632  -7.044569  -1.551918   1.148372  -2.723996  -0.000267  -0.008074  -1.491153  -2.588526   3.239856  26.804920  -0.009126  -0.013448   4.347162   0.750565  -1.842920 -35.731385  -0.006332   0.018240
 -2.717226   0.930386   4.454974  -6.465325  -8.279413   0.792206   6.860960  -0.046506  -1.817723  -1.990281  -2.588281  -1.409158   1.736172  -3.728711   0.991958  -3.070768  -6.915847 -14.711536   1.107797  -8.593661  24.305732  -0.028009  61.273730   0.019639  -0.488906   1.817343  -4.838423  -4.093047   4.748936  16.054392 -27.867897   0.891332 -13.565796   0.159460 -86.232226   0.131181  -1.046375  -4.355338  11.289295   3.946147  -1.327865  -5.769557  23.241236   0.003646   0.007929  -6.517394  -1.218472   1.297854  -7.497259   0.016287   0.015830  -1.867086  -2.727574   3.420378  27.750615  -0.012446  -0.018546   3.456253   0.601654  -2.080430 -32.964976   0.002306  -0.012440
 -2.718319   0.929109   4.451494  -6.590946  -9.253316   0.680861   7.161520   0.101681  -1.844241  -2.002682  -2.440112  -1.542321   1.644504  -3.888451   1.035485  -3.125344  -6.525577 -14.443340   0.526153  -8.387124  23.941967  -0.027250  61.826767   0.019741  -0.500678   1.971271  -4.782840  -4.058864   4.664639  15.439299 -27.753295   0.879466 -14.075712   0.183582 -86.879386   0.151989  -1.123285  -4.347837  11.159484   3.986683  -1.166722  -5.716402  22.827323   0.004127   0.009051  -6.060925  -0.891681   1.441898 -12.006833   0.024771   0.033978  -2.149489  -2.904456   3.655627  28.672811  -0.015411  -0.022072   2.618685   0.463136  -2.303467 -30.425056   0.004823  -0.035084
 -2.719323   0.927620   4.448105  -6.731873 -10.168284   0.572923   7.443854   0.213838  -1.876797  -2.003200  -2.324923  -1.674876   1.558720  -4.038342   1.076217  -3.175778  -6.155085 -14.173646  -0.012971  -8.184021  23.617933  -0.026103  62.346419   0.019461  -0.510217   2.148704  -4.709327  -4.011572   4.560728  14.835336 -27.637574   0.856090 -14.576440   0.215645 -87.489309   0.181954  -1.188978  -4.391556  10.997755   4.012300  -1.008504  -5.665743  22.483785   0.004230   0.009348  -5.658355  -0.578028   1.581585 -16.436232   0.028199   0.047962  -2.376740  -3.079379   3.915990  29.546894  -0.017636  -0.023881   1.837630   0.336839  -2.513895 -28.096804   0.003753  -0.049960
 -2.720191   0.925967   4.444770  -6.881711 -11.026962   0.470418   7.716303   0.296615  -1.910236  -1.997001  -2.237990  -1.805663   1.476363  -4.178686   1.113189  -3.222502  -5.810517 -13.908874  -0.511685  -7.991481  23.325882  -0.024651  62.831517   0.018826  -0.519285   2.325198  -4.624541  -3.957423   4.446536  14.251389 -27.523545   0.826528 -15.059987   0.262161 -88.060962   0.227508  -1.249473  -4.451717  10.809430   4.031224  -0.856827  -5.621587  22.175356   0.004154   0.009255  -5.306600  -0.280728   1.716441 -20.785595   0.028040   0.058380  -2.595076  -3.246556   4.160098  30.317250  -0.018631  -0.024139   1.064117   0.201992  -2.727114 -26.395717   0.002210  -0.055156
 -2.720947   0.925288   4.441591  -7.081109 -11.805976   0.179218   7.998667   0.355368  -1.790043  -1.970073  -2.176595  -1.866338   1.402139  -4.309880   1.150613  -3.264249  -5.496082 -13.588000  -0.967072  -7.814313  23.086972  -0.022395  63.276162   0.017784  -0.526962   2.472244  -4.533211  -3.883681   4.331132  13.607274 -27.394961   0.805425 -15.562402   0.345134 -88.607871   0.309891  -1.294470  -4.569803  10.563441   4.020586  -0.728352  -5.428278  22.028243   0.003633   0.008225  -5.583137   0.006173   2.035735 -20.052653   0.020854   0.043113  -2.720835  -3.427068   4.575261  31.051756  -0.019010  -0.023657   0.387472   0.099207  -2.912339 -24.393727  -0.000404  -0.060329
